<mxfile host="app.diagrams.net" agent="Mozilla/5.0 (Windows NT 10.0; Win64; x64) AppleWebKit/537.36 (KHTML, like Gecko) Chrome/134.0.0.0 Safari/537.36" version="26.1.1">
  <diagram name="Page-1" id="LisSmktXpSrCOvFtA3RC">
    <mxGraphModel dx="993" dy="558" grid="1" gridSize="10" guides="1" tooltips="1" connect="1" arrows="1" fold="1" page="1" pageScale="1" pageWidth="827" pageHeight="1169" math="0" shadow="0">
      <root>
        <mxCell id="0" />
        <mxCell id="1" parent="0" />
        <mxCell id="mN74A9lpkOg5u2ULeAVM-11" style="edgeStyle=orthogonalEdgeStyle;rounded=0;orthogonalLoop=1;jettySize=auto;html=1;exitX=1;exitY=0.5;exitDx=0;exitDy=0;" edge="1" parent="1" source="mN74A9lpkOg5u2ULeAVM-2" target="mN74A9lpkOg5u2ULeAVM-3">
          <mxGeometry relative="1" as="geometry" />
        </mxCell>
        <mxCell id="mN74A9lpkOg5u2ULeAVM-12" value="request&amp;nbsp;&lt;div&gt;processing&lt;/div&gt;" style="edgeLabel;html=1;align=center;verticalAlign=middle;resizable=0;points=[];" vertex="1" connectable="0" parent="mN74A9lpkOg5u2ULeAVM-11">
          <mxGeometry x="-0.1315" y="-1" relative="1" as="geometry">
            <mxPoint as="offset" />
          </mxGeometry>
        </mxCell>
        <mxCell id="mN74A9lpkOg5u2ULeAVM-2" value="Prompt reception and processing" style="ellipse;whiteSpace=wrap;html=1;aspect=fixed;" vertex="1" parent="1">
          <mxGeometry x="270" y="270" width="120" height="120" as="geometry" />
        </mxCell>
        <mxCell id="mN74A9lpkOg5u2ULeAVM-14" style="edgeStyle=orthogonalEdgeStyle;rounded=0;orthogonalLoop=1;jettySize=auto;html=1;exitX=0.5;exitY=0;exitDx=0;exitDy=0;entryX=0.5;entryY=0;entryDx=0;entryDy=0;" edge="1" parent="1" source="mN74A9lpkOg5u2ULeAVM-3" target="mN74A9lpkOg5u2ULeAVM-8">
          <mxGeometry relative="1" as="geometry" />
        </mxCell>
        <mxCell id="mN74A9lpkOg5u2ULeAVM-15" value="proceeded prompt" style="edgeLabel;html=1;align=center;verticalAlign=middle;resizable=0;points=[];" vertex="1" connectable="0" parent="mN74A9lpkOg5u2ULeAVM-14">
          <mxGeometry x="-0.0181" y="1" relative="1" as="geometry">
            <mxPoint as="offset" />
          </mxGeometry>
        </mxCell>
        <mxCell id="mN74A9lpkOg5u2ULeAVM-18" style="edgeStyle=orthogonalEdgeStyle;rounded=0;orthogonalLoop=1;jettySize=auto;html=1;exitX=0.5;exitY=1;exitDx=0;exitDy=0;entryX=0.5;entryY=0;entryDx=0;entryDy=0;" edge="1" parent="1" source="mN74A9lpkOg5u2ULeAVM-3" target="mN74A9lpkOg5u2ULeAVM-5">
          <mxGeometry relative="1" as="geometry" />
        </mxCell>
        <mxCell id="mN74A9lpkOg5u2ULeAVM-3" value="API Communication" style="ellipse;whiteSpace=wrap;html=1;aspect=fixed;" vertex="1" parent="1">
          <mxGeometry x="510" y="280" width="100" height="100" as="geometry" />
        </mxCell>
        <mxCell id="mN74A9lpkOg5u2ULeAVM-19" value="" style="edgeStyle=orthogonalEdgeStyle;rounded=0;orthogonalLoop=1;jettySize=auto;html=1;" edge="1" parent="1" source="mN74A9lpkOg5u2ULeAVM-5" target="mN74A9lpkOg5u2ULeAVM-3">
          <mxGeometry relative="1" as="geometry" />
        </mxCell>
        <mxCell id="mN74A9lpkOg5u2ULeAVM-20" value="formatting" style="edgeLabel;html=1;align=center;verticalAlign=middle;resizable=0;points=[];" vertex="1" connectable="0" parent="mN74A9lpkOg5u2ULeAVM-19">
          <mxGeometry x="-0.1803" relative="1" as="geometry">
            <mxPoint as="offset" />
          </mxGeometry>
        </mxCell>
        <mxCell id="mN74A9lpkOg5u2ULeAVM-21" style="edgeStyle=orthogonalEdgeStyle;rounded=0;orthogonalLoop=1;jettySize=auto;html=1;exitX=0;exitY=0.5;exitDx=0;exitDy=0;entryX=1;entryY=0.5;entryDx=0;entryDy=0;" edge="1" parent="1" source="mN74A9lpkOg5u2ULeAVM-5" target="mN74A9lpkOg5u2ULeAVM-6">
          <mxGeometry relative="1" as="geometry" />
        </mxCell>
        <mxCell id="mN74A9lpkOg5u2ULeAVM-22" value="final code" style="edgeLabel;html=1;align=center;verticalAlign=middle;resizable=0;points=[];" vertex="1" connectable="0" parent="mN74A9lpkOg5u2ULeAVM-21">
          <mxGeometry x="0.1617" y="2" relative="1" as="geometry">
            <mxPoint as="offset" />
          </mxGeometry>
        </mxCell>
        <mxCell id="mN74A9lpkOg5u2ULeAVM-5" value="Code Generation and Formatting" style="ellipse;whiteSpace=wrap;html=1;aspect=fixed;" vertex="1" parent="1">
          <mxGeometry x="495" y="560" width="130" height="130" as="geometry" />
        </mxCell>
        <mxCell id="mN74A9lpkOg5u2ULeAVM-24" style="edgeStyle=orthogonalEdgeStyle;rounded=0;orthogonalLoop=1;jettySize=auto;html=1;exitX=0.5;exitY=0;exitDx=0;exitDy=0;entryX=0.5;entryY=1;entryDx=0;entryDy=0;" edge="1" parent="1" source="mN74A9lpkOg5u2ULeAVM-6" target="mN74A9lpkOg5u2ULeAVM-23">
          <mxGeometry relative="1" as="geometry" />
        </mxCell>
        <mxCell id="mN74A9lpkOg5u2ULeAVM-25" value="filesystem request" style="edgeLabel;html=1;align=center;verticalAlign=middle;resizable=0;points=[];" vertex="1" connectable="0" parent="mN74A9lpkOg5u2ULeAVM-24">
          <mxGeometry x="-0.0424" y="-3" relative="1" as="geometry">
            <mxPoint as="offset" />
          </mxGeometry>
        </mxCell>
        <mxCell id="mN74A9lpkOg5u2ULeAVM-6" value="Output Handling" style="ellipse;whiteSpace=wrap;html=1;aspect=fixed;" vertex="1" parent="1">
          <mxGeometry x="290" y="585" width="80" height="80" as="geometry" />
        </mxCell>
        <mxCell id="mN74A9lpkOg5u2ULeAVM-9" style="edgeStyle=orthogonalEdgeStyle;rounded=0;orthogonalLoop=1;jettySize=auto;html=1;exitX=1;exitY=0.5;exitDx=0;exitDy=0;entryX=0;entryY=0.5;entryDx=0;entryDy=0;" edge="1" parent="1" source="mN74A9lpkOg5u2ULeAVM-7" target="mN74A9lpkOg5u2ULeAVM-2">
          <mxGeometry relative="1" as="geometry" />
        </mxCell>
        <mxCell id="mN74A9lpkOg5u2ULeAVM-10" value="Prompt" style="edgeLabel;html=1;align=center;verticalAlign=middle;resizable=0;points=[];" vertex="1" connectable="0" parent="mN74A9lpkOg5u2ULeAVM-9">
          <mxGeometry x="0.0288" y="-1" relative="1" as="geometry">
            <mxPoint as="offset" />
          </mxGeometry>
        </mxCell>
        <mxCell id="mN74A9lpkOg5u2ULeAVM-7" value="Developer" style="rounded=0;whiteSpace=wrap;html=1;" vertex="1" parent="1">
          <mxGeometry x="40" y="300" width="120" height="60" as="geometry" />
        </mxCell>
        <mxCell id="mN74A9lpkOg5u2ULeAVM-16" style="edgeStyle=orthogonalEdgeStyle;rounded=0;orthogonalLoop=1;jettySize=auto;html=1;exitX=0.5;exitY=1;exitDx=0;exitDy=0;entryX=0.5;entryY=1;entryDx=0;entryDy=0;" edge="1" parent="1" source="mN74A9lpkOg5u2ULeAVM-8" target="mN74A9lpkOg5u2ULeAVM-3">
          <mxGeometry relative="1" as="geometry" />
        </mxCell>
        <mxCell id="mN74A9lpkOg5u2ULeAVM-17" value="Generated code" style="edgeLabel;html=1;align=center;verticalAlign=middle;resizable=0;points=[];" vertex="1" connectable="0" parent="mN74A9lpkOg5u2ULeAVM-16">
          <mxGeometry x="0.0701" y="5" relative="1" as="geometry">
            <mxPoint as="offset" />
          </mxGeometry>
        </mxCell>
        <mxCell id="mN74A9lpkOg5u2ULeAVM-8" value="Google Gemini API" style="rounded=0;whiteSpace=wrap;html=1;" vertex="1" parent="1">
          <mxGeometry x="680" y="300" width="120" height="60" as="geometry" />
        </mxCell>
        <mxCell id="mN74A9lpkOg5u2ULeAVM-26" style="edgeStyle=orthogonalEdgeStyle;rounded=0;orthogonalLoop=1;jettySize=auto;html=1;exitX=0;exitY=0.5;exitDx=0;exitDy=0;entryX=0.5;entryY=1;entryDx=0;entryDy=0;" edge="1" parent="1" source="mN74A9lpkOg5u2ULeAVM-23" target="mN74A9lpkOg5u2ULeAVM-7">
          <mxGeometry relative="1" as="geometry" />
        </mxCell>
        <mxCell id="mN74A9lpkOg5u2ULeAVM-27" value="Generated Code" style="edgeLabel;html=1;align=center;verticalAlign=middle;resizable=0;points=[];" vertex="1" connectable="0" parent="mN74A9lpkOg5u2ULeAVM-26">
          <mxGeometry x="-0.2755" y="2" relative="1" as="geometry">
            <mxPoint as="offset" />
          </mxGeometry>
        </mxCell>
        <mxCell id="mN74A9lpkOg5u2ULeAVM-23" value="file system" style="ellipse;whiteSpace=wrap;html=1;aspect=fixed;" vertex="1" parent="1">
          <mxGeometry x="290" y="450" width="80" height="80" as="geometry" />
        </mxCell>
      </root>
    </mxGraphModel>
  </diagram>
</mxfile>
